<?xml version="1.0" encoding="utf-8"?>
<!-- Generator: Adobe Illustrator 26.2.1, SVG Export Plug-In . SVG Version: 6.00 Build 0)  -->
<svg version="1.1" id="Layer_1" xmlns="http://www.w3.org/2000/svg" xmlns:xlink="http://www.w3.org/1999/xlink" x="0px" y="0px"
	 viewBox="0 0 24 24" style="enable-background:new 0 0 24 24;" xml:space="preserve">
<style type="text/css">
	.st0{fill:#637381;}
	.st1{opacity:0.4;fill:#637381;enable-background:new    ;}
</style>
<path class="st0" d="M14.3,23.1c-0.5,0-0.9,0-1.4,0c-0.4,0-0.7-0.3-0.9-0.3c-0.3,0-0.6,0.3-0.9,0.3c-1,0-1.9,0-2.9,0
	c-0.8,0-1.3-0.6-1.4-1.4c0-0.4,0-0.8,0-1.2c0-0.2-0.1-0.3-0.3-0.3c-0.5,0-1,0-1.5,0c-1,0-1.5-0.6-1.5-1.5c0-0.6,0-1.3,0-1.9
	c0-0.2-0.1-0.3-0.3-0.3c-0.2,0-0.4,0-0.5,0c-1,0-1.5-0.6-1.5-1.5c0-1.3,0-2.5,0-3.8c0-0.8,0-1.7,0-2.5c0-1,0.6-1.5,1.5-1.6
	c0.8,0,0.8,0,0.8-0.8c0-0.5,0-1,0-1.5C3.5,4,4.1,3.4,5,3.4c0.5,0,1,0,1.5,0c0.3,0,0.3-0.1,0.3-0.3c0-0.4,0-0.8,0-1.2
	c0-0.7,0.6-1.3,1.3-1.3c1,0,2,0,3,0c0.3,0,0.6,0.3,0.8,0.3c0.3,0,0.5-0.3,0.8-0.3c1,0,2,0,3,0c0.7,0,1.3,0.6,1.3,1.3
	c0,0.4,0,0.8,0,1.2c0,0.2,0.1,0.3,0.3,0.3c0.5,0,1,0,1.5,0c0.9,0,1.5,0.6,1.5,1.5c0,0.6,0,1.3,0,1.9c0,0.2,0.1,0.3,0.3,0.3
	c0.2,0,0.3,0,0.5,0c1,0,1.5,0.6,1.6,1.6c0,1.8,0,3.7,0,5.5c0,0.3,0,0.6,0,0.9c0,0.8-0.5,1.3-1.3,1.5c-0.1,0-0.1,0-0.2,0
	c-0.3,0-0.6-0.1-0.8,0.1c-0.1,0.2,0,0.5,0,0.8c0,0.5,0,1,0,1.4c0,0.9-0.6,1.4-1.4,1.4c-0.5,0-1,0-1.5,0c-0.3,0-0.4,0.1-0.3,0.4
	c0,0.4,0,0.7,0,1.1c0,0.8-0.6,1.4-1.4,1.4C15.3,23.1,14.8,23.1,14.3,23.1C14.3,23.1,14.3,23.1,14.3,23.1z M2.1,11.8
	c0,0.9,0,1.8,0,2.7c0,1.2,0.1,1.1,1.2,1.1c0.2,0,0.2-0.1,0.2-0.2c0-0.4,0-0.8,0-1.2c0-0.4,0.1-0.5,0.4-0.4c0,0,0.1,0,0.1,0
	c0.3,0,0.4,0.1,0.4,0.4c0,1.5,0,3,0,4.5c0,0.6,0.2,0.8,0.8,0.8c0.7,0,1.3,0,2,0c0.4,0,0.6,0.2,0.6,0.6c0,0.5,0,1.1,0,1.6
	c0,0.4,0.2,0.6,0.6,0.6c0.9,0,1.7,0,2.6,0c0.4,0,0.6-0.2,0.6-0.6c0-0.7,0-1.3,0-2c0-0.7,0-0.7,0.7-0.7c0.3,0,0.3,0.1,0.3,0.3
	c0,0.8,0,1.5,0,2.3c0,0.5,0.2,0.6,0.6,0.6c0.8,0,1.6,0,2.5,0c0.5,0,0.6-0.2,0.6-0.7c0-1.1,0-2.3,0-3.4c0-0.7,0-0.6,0.7-0.6
	c0.2,0,0.3,0.1,0.3,0.3c0,0.4,0,0.8,0,1.2c0,0.3,0.1,0.4,0.4,0.4c0.4,0,0.8,0,1.2,0c0.6,0,0.8-0.1,0.8-0.8c0-0.8,0-1.6,0-2.4
	c0-0.5,0.2-0.6,0.6-0.6c0.4,0,0.8,0,1.2,0c0.4,0,0.5-0.2,0.5-0.5c0-2.1,0-4.3,0-6.4c0-0.4-0.2-0.5-0.5-0.5c-0.2,0-0.4,0-0.6,0
	c-0.2,0-0.3,0.1-0.3,0.3c0,0.4,0,0.8,0,1.2c0,0.3-0.1,0.4-0.4,0.4c0,0-0.1,0-0.1,0c-0.3,0.1-0.4-0.1-0.4-0.4c0-1.5,0-3,0-4.5
	c0-0.6-0.2-0.7-0.7-0.7c-0.7,0-1.3,0-2,0c-0.4,0-0.6-0.1-0.6-0.6c0-0.5,0-1.1,0-1.6c0-0.4-0.2-0.6-0.5-0.6c-0.9,0-1.8,0-2.6,0
	c-0.4,0-0.6,0.2-0.6,0.6c0,0.7,0,1.4,0,2c0,0.7,0,0.6-0.6,0.7c-0.3,0-0.3-0.1-0.3-0.3c0-0.8,0-1.5,0-2.3c0-0.5-0.2-0.7-0.7-0.7
	c-0.8,0-1.6,0-2.4,0c-0.5,0-0.7,0.2-0.7,0.7c0,1.1,0,2.3,0,3.4c0,0.7,0,0.7-0.7,0.6c-0.2,0-0.2-0.1-0.2-0.2c0-0.4,0-0.8,0-1.3
	c0-0.3-0.1-0.4-0.4-0.4c-0.4,0-0.8,0-1.2,0c-0.6,0-0.8,0.1-0.8,0.8c0,0.8,0,1.6,0,2.4c0,0.4-0.2,0.6-0.6,0.6c-0.4,0-0.8,0-1.1,0
	c-0.5,0-0.6,0.1-0.6,0.6C2.1,9.7,2.1,10.8,2.1,11.8z"/>
<path class="st1" d="M2.1,11.8c0-1,0-2,0-3.1c0-0.5,0.1-0.6,0.6-0.6c0.4,0,0.8,0,1.1,0c0.4,0,0.6-0.2,0.6-0.6c0-0.8,0-1.6,0-2.4
	c0-0.6,0.1-0.8,0.8-0.8c0.4,0,0.8,0,1.2,0c0.3,0,0.4,0.1,0.4,0.4c0,0.4,0,0.8,0,1.3c0,0.2,0.1,0.2,0.2,0.2c0.7,0,0.7,0,0.7-0.6
	c0-1.1,0-2.3,0-3.4c0-0.5,0.2-0.7,0.7-0.7c0.8,0,1.6,0,2.4,0c0.5,0,0.7,0.2,0.7,0.7c0,0.8,0,1.5,0,2.3c0,0.2,0,0.4,0.3,0.3
	c0.6,0,0.6,0,0.6-0.7c0-0.7,0-1.4,0-2c0-0.4,0.2-0.6,0.6-0.6c0.9,0,1.8,0,2.6,0c0.4,0,0.5,0.2,0.5,0.6c0,0.5,0,1.1,0,1.6
	c0,0.4,0.1,0.6,0.6,0.6c0.7,0,1.3,0,2,0c0.6,0,0.7,0.2,0.7,0.7c0,1.5,0,3,0,4.5c0,0.3,0.1,0.4,0.4,0.4c0,0,0.1,0,0.1,0
	c0.3,0,0.4-0.1,0.4-0.4c0-0.4,0-0.8,0-1.2c0-0.2,0.1-0.3,0.3-0.3c0.2,0,0.4,0,0.6,0c0.4,0,0.5,0.2,0.5,0.5c0,2.1,0,4.3,0,6.4
	c0,0.4-0.2,0.5-0.5,0.5c-0.4,0-0.8,0-1.2,0c-0.5,0-0.6,0.2-0.6,0.6c0,0.8,0,1.6,0,2.4c0,0.6-0.1,0.8-0.8,0.8c-0.4,0-0.8,0-1.2,0
	c-0.3,0-0.4-0.1-0.4-0.4c0-0.4,0-0.8,0-1.2c0-0.2-0.1-0.3-0.3-0.3c-0.7,0-0.7,0-0.7,0.6c0,1.1,0,2.3,0,3.4c0,0.5-0.2,0.7-0.6,0.7
	c-0.8,0-1.6,0-2.5,0c-0.5,0-0.6-0.2-0.6-0.6c0-0.8,0-1.6,0-2.3c0-0.2,0-0.3-0.3-0.3c-0.7,0-0.7,0-0.7,0.7c0,0.7,0,1.3,0,2
	c0,0.4-0.2,0.6-0.6,0.6c-0.9,0-1.7,0-2.6,0c-0.4,0-0.6-0.2-0.6-0.6c0-0.5,0-1.1,0-1.6c0-0.4-0.2-0.6-0.6-0.6c-0.7,0-1.3,0-2,0
	c-0.6,0-0.8-0.2-0.8-0.8c0-1.5,0-3,0-4.5c0-0.3-0.1-0.4-0.4-0.4c0,0-0.1,0-0.1,0c-0.3-0.1-0.5,0.1-0.4,0.4c0,0.4,0,0.8,0,1.2
	c0,0.2-0.1,0.2-0.2,0.2c-1,0-1.2,0.1-1.2-1.1C2.1,13.6,2.1,12.7,2.1,11.8z M15.7,11.4c0-0.3,0-0.6,0-1c0.4,0,0.8,0,1.2,0
	c0.7,0,0.7,0,0.7-0.7c0-0.2-0.1-0.2-0.2-0.2c-0.6,0-1.1,0-1.7,0c0-0.2,0-0.3,0-0.5c0,0,0.1,0,0.1,0c0.3,0,0.4,0,0.3-0.4
	c-0.2-0.5-0.6-0.9-1.2-1c-0.2,0-0.5,0.1-0.6-0.1c-0.1-0.2,0-0.5,0-0.7c0,0,0-0.1,0-0.1c0-0.5,0.1-0.5-0.5-0.5
	c-0.5,0-0.5-0.1-0.5,0.4c0,0.2,0,0.3,0,0.5c0,0.5,0.1,0.5-0.5,0.5c-0.5,0-0.5,0.1-0.5-0.5c0-0.2,0-0.3,0-0.5c0-0.5,0-0.5-0.5-0.5
	c-0.6,0-0.5-0.1-0.5,0.5c0,0.1,0,0.2,0,0.2c0,0.7,0,0.7-0.7,0.7c-0.2,0-0.3-0.1-0.3-0.3c0-0.3,0-0.6,0-0.9c0-0.1,0-0.2-0.1-0.2
	c-0.6-0.1-0.8,0-0.8,0.6c0,0.1,0,0.2,0,0.4c0,0.3-0.1,0.5-0.4,0.5c-0.6,0-1,0.2-1.3,0.8C7.6,8.9,7.7,9,8.2,9c0,0.2,0,0.3,0,0.5
	c-0.4,0-0.8,0-1.2,0c-0.7,0-0.7,0-0.7,0.7c0,0.2,0.1,0.2,0.2,0.2c0.5,0,1.1,0,1.6,0c0,0.3,0,0.6,0,1c-0.4,0-0.8,0-1.2,0
	c-0.7,0-0.7,0-0.7,0.7c0,0.2,0.1,0.3,0.3,0.3c0.5,0,1.1,0,1.6,0c0,0.3,0,0.6,0,1c-0.4,0-0.8,0-1.2,0c-0.7,0-0.7,0-0.7,0.7
	c0,0.2,0.1,0.2,0.2,0.2c0.6,0,1.1,0,1.7,0c0,0.2,0,0.3,0,0.5c0,0-0.1,0-0.1,0c-0.3,0-0.4,0-0.3,0.4C8,15.6,8.4,15.9,9,16
	c0.2,0,0.5-0.1,0.6,0.1c0.1,0.2,0,0.5,0,0.7c0,0,0,0.1,0,0.1c0,0.5-0.1,0.5,0.5,0.5c0.5,0,0.5,0.1,0.5-0.4c0-0.2,0-0.3,0-0.5
	c0-0.5-0.1-0.5,0.5-0.5c0.5,0,0.5-0.1,0.5,0.5c0,0.2,0,0.3,0,0.5c0,0.5,0,0.5,0.5,0.5c0.6,0,0.5,0.1,0.5-0.5c0-0.1,0-0.2,0-0.2
	c0-0.7,0-0.7,0.7-0.7c0.2,0,0.3,0.1,0.3,0.3c0,0.3,0,0.6,0,0.9c0,0.1,0,0.2,0.1,0.2c0.6,0.1,0.8,0,0.8-0.6c0-0.1,0-0.2,0-0.4
	c0-0.3,0.1-0.5,0.4-0.5c0.6,0,1-0.2,1.3-0.8c0.3-0.5,0.2-0.6-0.3-0.6c0-0.2,0-0.3,0-0.5c0.4,0,0.8,0,1.2,0c0.7,0,0.7,0,0.7-0.7
	c0-0.2-0.1-0.2-0.2-0.2c-0.5,0-1.1,0-1.6,0c0-0.3,0-0.6,0-1c0.4,0,0.8,0,1.2,0c0.7,0,0.7,0,0.7-0.7c0-0.2-0.1-0.3-0.3-0.3
	C16.8,11.4,16.3,11.3,15.7,11.4z M20.4,11.4c0-0.5,0-0.5-0.4-0.5c-0.5,0-0.5,0-0.5,0.4c0,0.5,0,0.5,0.4,0.5
	C20.5,11.8,20.4,11.9,20.4,11.4z M4.4,12.3c0-0.2,0-0.5-0.4-0.4c-0.6,0-0.5,0-0.5,0.4c0,0.5,0,0.5,0.4,0.5
	C4.4,12.8,4.4,12.8,4.4,12.3z"/>
<path class="st1" d="M15.7,12.3c0,0.3,0,0.6,0,1c0,0.3,0,0.6,0,0.9c0,0.2,0,0.3,0,0.5c-0.2,0.1-0.4-0.1-0.5,0.2
	c-0.1,0.3-0.3,0.3-0.6,0.3c-1.8,0-3.6,0-5.4,0c-0.2,0-0.4,0-0.5-0.2c-0.1-0.3-0.3-0.3-0.6-0.3c0-0.2,0-0.3,0-0.5c0-0.3,0-0.6,0-0.9
	c0-0.3,0-0.6,0-1c0-0.3,0-0.6,0-0.9c0-0.3,0-0.6,0-1c0-0.3,0-0.6,0-0.9c0-0.2,0-0.3,0-0.5c0.2-0.1,0.4,0.1,0.5-0.2
	C8.8,8.6,9,8.5,9.3,8.5c1.8,0,3.6,0,5.4,0c0.2,0,0.4,0,0.5,0.2C15.2,9,15.5,9,15.7,9c0,0.2,0,0.3,0,0.5c0,0.3,0,0.6,0,0.9
	c0,0.3,0,0.6,0,1C15.7,11.7,15.7,12,15.7,12.3z M9.6,12.1c0,0.4,0,0.8,0,1.3c0,0.2,0.1,0.3,0.3,0.3c0.1,0,0.2,0,0.2,0
	c0.3,0.1,0.4-0.1,0.4-0.4c0-0.6,0-0.6,0.6-0.6c0.3,0,0.3,0.1,0.3,0.3c0,0.6,0,0.6,0.7,0.6c0,0,0,0,0.1,0c0.2,0,0.2-0.1,0.2-0.2
	c0-0.9,0-1.7,0-2.6c0-0.5-0.3-0.9-0.9-0.9c-0.4,0-0.7,0-1.1,0c-0.5,0.1-0.8,0.4-0.8,0.9C9.6,11.3,9.6,11.7,9.6,12.1z M14.3,11.8
	c0-0.4,0-0.8,0-1.3c0-0.6,0-0.6-0.6-0.6c-0.3,0-0.3,0.1-0.3,0.3c0,0.9,0,1.9,0,2.8c0,0.7,0,0.6,0.6,0.6c0.2,0,0.3-0.1,0.3-0.3
	C14.3,12.9,14.3,12.4,14.3,11.8z"/>
<path class="st0" d="M15.7,9c-0.3,0-0.5,0-0.6-0.3c-0.1-0.2-0.3-0.2-0.5-0.2c-1.8,0-3.6,0-5.4,0C9,8.5,8.8,8.6,8.7,8.9
	C8.6,9.1,8.4,8.9,8.2,9C7.7,9,7.6,8.9,7.9,8.4c0.3-0.5,0.7-0.8,1.3-0.8c0.4,0,0.5-0.1,0.4-0.5c0-0.1,0-0.2,0-0.4
	c0-0.6,0.2-0.7,0.8-0.6c0.2,0,0.1,0.1,0.1,0.2c0,0.3,0,0.6,0,0.9c0,0.2,0.1,0.3,0.3,0.3c0.7,0,0.7,0,0.7-0.7c0-0.1,0-0.2,0-0.2
	c0-0.6-0.1-0.5,0.5-0.5c0.5,0,0.5,0,0.5,0.5c0,0.2,0,0.3,0,0.5c0,0.5-0.1,0.5,0.5,0.5c0.5,0,0.5,0.1,0.5-0.5c0-0.2,0-0.3,0-0.5
	c0-0.5-0.1-0.4,0.5-0.4c0.5,0,0.5-0.1,0.5,0.5c0,0,0,0.1,0,0.1c0,0.2-0.1,0.5,0,0.7c0.1,0.2,0.4,0.1,0.6,0.1c0.6,0.1,1,0.5,1.2,1
	C16.2,9,16.1,9,15.8,9C15.8,9,15.8,9,15.7,9z"/>
<path class="st0" d="M8.2,14.6c0.3,0,0.5,0,0.6,0.3c0.1,0.2,0.3,0.2,0.5,0.2c1.8,0,3.6,0,5.4,0c0.2,0,0.5-0.1,0.6-0.3
	c0.1-0.3,0.3-0.1,0.5-0.2c0.6,0,0.6,0.1,0.3,0.6c-0.3,0.5-0.7,0.8-1.3,0.8c-0.4,0-0.5,0.1-0.4,0.5c0,0.1,0,0.2,0,0.4
	c0,0.6-0.2,0.7-0.8,0.6c-0.2,0-0.1-0.1-0.1-0.2c0-0.3,0-0.6,0-0.9c0-0.2-0.1-0.3-0.3-0.3c-0.7,0-0.7,0-0.7,0.7c0,0.1,0,0.2,0,0.2
	c0,0.6,0.1,0.5-0.5,0.5c-0.5,0-0.5,0-0.5-0.5c0-0.2,0-0.3,0-0.5c0-0.5,0.1-0.5-0.5-0.5c-0.5,0-0.5-0.1-0.5,0.5c0,0.2,0,0.3,0,0.5
	c0,0.5,0.1,0.4-0.5,0.4c-0.5,0-0.5,0.1-0.5-0.5c0,0,0-0.1,0-0.1c0-0.2,0.1-0.5,0-0.7C9.5,15.9,9.2,16.1,9,16c-0.6-0.1-1-0.5-1.2-1
	c-0.1-0.3,0-0.4,0.3-0.4C8.1,14.6,8.2,14.6,8.2,14.6z"/>
<path class="st0" d="M8.2,11.4c0,0.3,0,0.6,0,0.9c-0.5,0-1.1,0-1.6,0c-0.2,0-0.3-0.1-0.3-0.3c0-0.7,0-0.7,0.7-0.7
	C7.4,11.3,7.8,11.3,8.2,11.4z"/>
<path class="st0" d="M15.7,12.3c0-0.3,0-0.6,0-0.9c0.5,0,1.1,0,1.6,0c0.2,0,0.3,0.1,0.3,0.3c0,0.7,0,0.7-0.7,0.7
	C16.5,12.3,16.1,12.3,15.7,12.3z"/>
<path class="st0" d="M8.2,9.5c0,0.3,0,0.6,0,0.9c-0.5,0-1.1,0-1.6,0c-0.2,0-0.2-0.1-0.2-0.2c0-0.7,0-0.7,0.7-0.7
	C7.4,9.5,7.8,9.5,8.2,9.5z"/>
<path class="st0" d="M15.7,10.4c0-0.3,0-0.6,0-0.9c0.6,0,1.1,0,1.7,0c0.1,0,0.2,0.1,0.2,0.2c0.1,0.7,0.1,0.7-0.7,0.7
	C16.5,10.4,16.1,10.4,15.7,10.4z"/>
<path class="st0" d="M8.2,13.2c0,0.3,0,0.6,0,0.9c-0.6,0-1.1,0-1.7,0c-0.1,0-0.2-0.1-0.2-0.2c-0.1-0.7-0.1-0.7,0.7-0.7
	C7.4,13.2,7.8,13.2,8.2,13.2z"/>
<path class="st0" d="M15.7,14.1c0-0.3,0-0.6,0-0.9c0.5,0,1.1,0,1.6,0c0.2,0,0.2,0.1,0.2,0.2c0,0.7,0,0.7-0.7,0.7
	C16.5,14.2,16.1,14.1,15.7,14.1z"/>
<path class="st0" d="M20.4,11.4c0,0.5,0.1,0.4-0.5,0.4c-0.4,0-0.4,0-0.4-0.5c0-0.4,0-0.4,0.5-0.4C20.4,10.9,20.4,10.9,20.4,11.4z"/>
<path class="st0" d="M4.4,12.3c0,0.5,0,0.5-0.5,0.5c-0.4,0-0.4,0-0.4-0.5c0-0.5-0.1-0.4,0.5-0.4C4.5,11.8,4.5,12,4.4,12.3z"/>
<path class="st0" d="M9.6,12.1c0-0.4,0-0.8,0-1.2c0-0.6,0.3-0.9,0.8-0.9c0.4,0,0.7,0,1.1,0c0.5,0.1,0.9,0.4,0.9,0.9
	c0,0.9,0,1.7,0,2.6c0,0.2-0.1,0.2-0.2,0.2c0,0,0,0-0.1,0c-0.7,0-0.7,0-0.7-0.6c0-0.3-0.1-0.3-0.3-0.3c-0.6,0-0.6,0-0.6,0.6
	c0,0.3-0.1,0.4-0.4,0.4c-0.1,0-0.2,0-0.2,0c-0.2,0-0.3-0.1-0.3-0.3C9.6,13,9.6,12.6,9.6,12.1z M11.5,11.3c0-0.2,0-0.5-0.4-0.4
	c-0.5,0-0.5,0-0.5,0.4c0,0.5,0,0.5,0.4,0.5C11.5,11.8,11.5,11.8,11.5,11.3z"/>
<path class="st0" d="M14.3,11.8c0,0.5,0,1.1,0,1.6c0,0.2,0,0.3-0.3,0.3c-0.6,0-0.6,0-0.6-0.6c0-0.9,0-1.9,0-2.8c0-0.2,0-0.3,0.3-0.3
	c0.6,0,0.6,0,0.6,0.6C14.3,11,14.3,11.4,14.3,11.8z"/>
<path class="st1" d="M11.5,11.3c0,0.5,0,0.5-0.5,0.5c-0.4,0-0.4,0-0.4-0.5c0-0.4,0-0.4,0.5-0.4C11.5,10.8,11.5,11.1,11.5,11.3z"/>
</svg>
