<?xml version="1.0" encoding="utf-8"?>
<!-- Generator: Adobe Illustrator 26.2.1, SVG Export Plug-In . SVG Version: 6.00 Build 0)  -->
<svg version="1.1" id="Layer_1" xmlns="http://www.w3.org/2000/svg" xmlns:xlink="http://www.w3.org/1999/xlink" x="0px" y="0px"
	 viewBox="0 0 24 24" style="enable-background:new 0 0 24 24;" xml:space="preserve">
<style type="text/css">
	.st0{fill:#637381;}
	.st1{opacity:0.4;fill:#637381;enable-background:new    ;}
</style>
<path class="st0" d="M18.9,12.6c-0.3,0.5-0.6,0.9-1.2,1.1c-0.2,0.1-0.2,0.1-0.1,0.3c0.7,1.3,0.2,2.5-1.3,2.8c-0.2,0-0.2,0.1-0.2,0.3
	c0.2,1.2-0.6,2.1-1.8,2.1c-1.8,0-3.7,0-5.5,0c-0.3,0-0.5,0.1-0.7,0.3c-0.3,0.4-0.7,0.7-1.1,1.1c-0.9,0.8-2.1,0.9-3,0
	c-1-0.9-1.9-1.9-2.8-2.8c-0.8-0.9-0.8-2.1,0-3c0.8-0.8,1.5-1.5,2.3-2.3c0.3-0.3,0.5-0.5,0.6-0.9c0.3-0.7,0.6-1.4,0.9-2.1
	c0.6-1.4,2-2.2,3.4-2.1c0,0.2,0,0.4,0,0.6c0,1.4,0,2.7,0,4.1c0,1.1,0.8,1.8,1.8,1.8c1,0,1.7-0.8,1.8-1.8c0-0.6,0-1.1,0-1.7
	c0-0.6,0-0.6,0.6-0.6c1.3,0,2.7,0,4,0C18,9.6,19.5,10.7,18.9,12.6z"/>
<path class="st1" d="M18.9,12.6c0.6-1.9-0.9-3-2.3-2.9c-1.3,0.1-2.7,0-4,0c-0.6,0-0.6,0-0.6,0.6c0,0.6,0,1.1,0,1.7
	c0,1.1-0.7,1.8-1.8,1.8c-1,0-1.8-0.7-1.8-1.8c0-1.4,0-2.7,0-4.1c0-0.2,0-0.4,0-0.6c0.1-0.1,0.1-0.3,0.2-0.4c0.4-1.2,1.3-2,2.6-2
	c1.3,0,2.7,0,4,0c0.3,0,0.5-0.1,0.7-0.3c0.4-0.4,0.7-0.8,1.1-1.1c0.9-0.9,2.2-0.9,3,0c0.9,0.9,1.8,1.8,2.7,2.8
	c0.9,0.9,0.9,2.2,0,3.1c-0.9,0.9-1.8,1.8-2.6,2.6C19.8,12.4,19.4,12.6,18.9,12.6z"/>
</svg>
