<?xml version="1.0" encoding="utf-8"?>
<!-- Generator: Adobe Illustrator 26.2.1, SVG Export Plug-In . SVG Version: 6.00 Build 0)  -->
<svg version="1.1" id="Layer_1" xmlns="http://www.w3.org/2000/svg" xmlns:xlink="http://www.w3.org/1999/xlink" x="0px" y="0px"
	 viewBox="0 0 256 256" style="enable-background:new 0 0 256 256;" xml:space="preserve">
<style type="text/css">
	.st0{opacity:0.4;fill:#637381;enable-background:new    ;}
	.st1{fill:none;}
	.st2{fill:none;stroke:#000000;stroke-width:10;stroke-linecap:round;stroke-linejoin:round;}
	.st3{fill:#637381;}
	.st4{fill:#637381;stroke:#000000;stroke-width:10;stroke-miterlimit:10;}
</style>
<path class="st0" d="M3.6,226c1.1,11,8.3,19.7,19.1,22c17.1,3.6,49.2,8,105.3,8s88.2-4.4,105.3-8c10.8-2.3,18-11,19.1-22
	c1.7-16.3,3.6-46.2,3.6-98s-1.9-81.7-3.6-98c-1.1-11-8.3-19.7-19.1-22C216.2,4.4,184,0,128,0S39.8,4.4,22.7,8
	c-10.8,2.3-18,11-19.1,22C1.9,46.3,0,76.2,0,128S1.9,209.7,3.6,226z"/>
<rect class="st1" width="256" height="256"/>
<line class="st2" x1="53.8" y1="73.9" x2="53.8" y2="135.6"/>
<path class="st3" d="M186.2,195.5c-1.4-2.2-21.5-31.4-58.4-31.3c-36.8,0.2-56.6,29.4-58,31.6l3,1c34.7,11.8,72.4,12,107.2,0.6
	L186.2,195.5z"/>
<path class="st2" d="M71,191.3c20.5-31.5,62.7-40.3,94.1-19.8c7.9,5.1,14.7,12,19.8,19.8"/>
<path class="st4" d="M159.8,87.9c16.2,17.7,14.9,44.9-2.7,61.1s-44.9,14.9-61.1-2.7c-15.1-16.5-15.1-41.8,0-58.4"/>
<polygon class="st3" points="195.1,73.9 128,96.2 60.9,73.9 128,51.6 "/>
<polygon class="st2" points="202.2,73.9 128,98.5 53.8,73.9 128,49.1 "/>
</svg>
