<?xml version="1.0" encoding="UTF-8"?><svg id="a" xmlns="http://www.w3.org/2000/svg" viewBox="0 0 1080 261.65022"><defs><style>.b{fill:#f9ac06;}.c{fill:#140047;}.d{fill:#5dd9d7;}.e{fill:#f3533d;}.f{fill:#3145ff;}</style></defs><g><path class="c" d="M316.26815,78.40987v-10.78877h-70.97532V200.71135h70.97532v-10.9723h-57.56999v-50.77527h51.923v-10.37546h-51.923v-50.17843h57.56999Z"/><path class="c" d="M424.42959,61.01048V125.97146c-2.6628-8.9523-7.66699-16.11408-15.01231-21.5313-7.34532-5.41722-16.25166-8.12597-26.71903-8.12597-9.41128,0-17.81269,2.11191-25.0661,6.33546-7.29964,4.22382-13.03826,10.32951-17.12422,18.3179-4.08596,7.98811-6.10569,17.39939-6.10569,28.18787,0,10.69686,2.01972,20.06218,6.10569,28.05057,4.08596,7.98811,9.82458,14.0938,17.21585,18.40925,7.3456,4.26978,15.6551,6.38141,24.97447,6.38141,10.46737,0,19.37372-2.6628,26.71903-8.08002,7.34532-5.41722,12.34952-12.579,15.01231-21.5313v28.32602h13.2218V61.01048h-13.2218Zm-4.82038,109.76814c-3.35154,6.24355-7.94244,11.06393-13.77268,14.46143-5.87648,3.39722-12.44142,5.09582-19.74107,5.09582-11.56886,0-20.84256-3.71861-27.8208-11.06421-6.97797-7.34532-10.46709-17.39939-10.46709-30.11625,0-12.67091,3.48912-22.7247,10.46709-30.0703,6.97825-7.39127,16.25194-11.06393,27.8208-11.06393,7.29964,0,13.86459,1.69861,19.74107,5.09582,5.83024,3.39722,10.42114,8.2176,13.77268,14.46143,3.35126,6.19759,5.00392,13.40533,5.00392,21.57698,0,8.21788-1.65265,15.37966-5.00392,21.62321Z"/><path class="c" d="M542.00231,97.64573v54.72337c0,12.85445-3.07582,22.54144-9.13583,29.15234-6.10597,6.61062-14.32357,9.91621-24.65308,9.91621-9.82458,0-17.53725-2.98419-23.22991-8.9523-5.64699-5.96811-8.49332-14.64496-8.49332-25.93838v-58.90124h-13.17584v60.00301c0,14.73659,3.71861,25.89243,11.20179,33.51347,7.48318,7.62076,17.26181,11.43128,29.33588,11.43128,8.9523,0,16.89446-2.3414,23.7808-6.97825,6.93229-4.68252,11.70672-11.47723,14.36952-20.38358v25.47968h13.2218V97.64573h-13.2218Z"/><g><polygon class="c" points="713.17821 172.77902 696.59106 172.77902 706.97754 200.68224 678.84157 200.68224 674.50105 188.20333 669.61792 173.86426 669.54033 173.86426 669.0753 172.77902 662.40959 153.71151 659.85165 146.19332 658.14667 141.54247 642.79947 97.43956 627.37516 141.54247 625.82488 146.19332 623.18982 153.71151 616.60123 172.77902 614.04376 179.98734 606.75785 200.68224 578.62187 200.68224 589.08546 172.77902 573.50598 172.77902 573.50598 146.19332 598.92932 146.19332 627.68503 68.91613 658.06908 68.91613 686.74721 146.19332 713.17821 146.19332 713.17821 172.77902"/><path class="c" d="M766.78808,177.84851c-4.77471,0-8.17193-1.00986-10.19193-3.02987-2.02-1.97405-3.02987-5.50913-3.02987-10.559v-45.67945h23.41345v-22.44954h-23.41345v-25.84675h-26.58145v25.84675h-14.55305v22.44954h14.55305v45.3121c0,13.2218,3.12205,22.63307,9.31965,28.32574,6.24355,5.64699,15.19585,8.49332,26.90257,8.49332h13.9565v-22.86284h-10.37546Z"/><path class="c" d="M796.26154,61.01048V200.71135h26.58117V61.01048h-26.58117Z"/><path class="c" d="M924.02619,96.13065v21.71484c-2.6628-7.06988-7.11611-12.67063-13.40561-16.80255-6.2895-4.13192-13.86431-6.24355-22.67903-6.24355-8.76848,0-16.71064,2.15759-23.7808,6.42708-7.02392,4.2695-12.53305,10.46737-16.48115,18.59334-3.99406,8.12569-5.96811,17.62887-5.96811,28.60118,0,10.92635,1.97405,20.47549,5.96811,28.60118,3.9481,8.08002,9.45723,14.27761,16.48115,18.59306,7.07016,4.26978,15.01231,6.38141,23.7808,6.38141,8.81472,0,16.38952-2.06596,22.67903-6.2895s10.74281-9.87053,13.40561-16.89446v21.89865h26.39764V96.13065h-26.39764Zm-7.85053,74.28063c-5.23369,5.46317-11.84458,8.21788-19.9246,8.21788-8.30951,0-14.96608-2.70875-19.97028-8.03406-5.04987-5.37155-7.57509-12.76282-7.57509-22.17409,0-9.45723,2.52522-16.8485,7.57509-22.266,5.0042-5.41722,11.66077-8.12569,19.97028-8.12569,8.08002,0,14.69092,2.75442,19.9246,8.2176,5.23369,5.46317,7.85053,12.85445,7.85053,22.17409,0,9.18179-2.61684,16.52711-7.85053,21.99028Z"/><path class="c" d="M1051.51512,154.93999c-3.58075-4.22354-7.8962-7.29936-12.85445-9.27369-4.95824-1.9281-11.43128-3.81024-19.32748-5.5548-5.69294-1.37721-10.00839-2.57089-13.03826-3.58103-3.02987-1.00986-5.55508-2.38707-7.52913-4.17759-2.02-1.74456-3.02987-4.08596-3.02987-6.97825,0-3.62671,1.23935-6.51899,3.76457-8.67686,2.52494-2.11163,6.06001-3.2134,10.559-3.2134,5.69266,0,10.28356,1.51479,13.77268,4.54494,3.53508,3.02987,5.78457,7.06988,6.79443,12.07407h24.92852c-1.88214-10.69686-6.65685-19.23586-14.32357-25.66322-7.71267-6.42708-17.90432-9.64076-30.57523-9.64076-12.21193,0-21.80675,2.84633-28.69309,8.49304-6.93229,5.69266-10.37546,13.03826-10.37546,22.08219,0,7.07016,1.69861,12.579,5.18773,16.61901,3.44317,4.04001,7.62076,6.97825,12.44114,8.76876,4.86662,1.83619,11.15612,3.62671,18.96041,5.37127,5.69294,1.42317,10.05407,2.61684,13.13017,3.62671,3.07582,1.01014,5.64671,2.43331,7.71267,4.31545,2.11163,1.88242,3.12177,4.36141,3.12177,7.3456,0,3.5348-1.19368,6.42708-3.58103,8.58495-2.38707,2.20354-5.83024,3.30531-10.37518,3.30531-6.28978,0-11.38561-1.46912-15.28775-4.40708-3.90243-2.98419-6.15192-7.0242-6.79471-12.16598h-25.4794c1.74456,11.2937,6.74876,20.01623,14.9204,26.1222,8.17193,6.10597,19.05232,9.13583,32.64147,9.13583,11.8443,0,21.25558-2.75442,28.23383-8.26355,6.97825-5.55508,10.46737-12.80849,10.46737-21.71484,0-7.16178-1.79052-12.85473-5.37155-17.07827Z"/></g></g><rect class="b" x="41.33197" y="103.92895" width="33.53141" height="104.65264"/><rect class="e" x="89.74518" y="9.07602" width="33.53141" height="131.50651" transform="translate(181.34016 -31.68161) rotate(90)"/><rect class="d" x="90.03235" y="103.92895" width="33.53141" height="104.65264"/><rect class="f" x="138.73273" y="103.92895" width="33.53141" height="104.65264"/></svg>