<?xml version="1.0" encoding="UTF-8"?><svg xmlns="http://www.w3.org/2000/svg" viewBox="0 0 220 220"><defs><style>.e{fill:#fff;}.f{fill:#cd2738;}.g{fill:#ffd400;}.h{fill:#ffd432;}.i{fill:#d94556;}.j{fill:#94d4ff;}</style></defs><g id="a"/><g id="b"/><g id="c"><g id="d"><g><path class="i" d="M110.46249,175.84203l-40.178,16.0712,12.2136-54.64304c.96536,.32072,2.25112,.32072,3.21615,.32072,3.8576,0,7.39129,1.60808,9.96281,4.1796,8.35951,8.35632,21.53533,8.35632,29.89479,0,2.57152-2.57152,6.10521-4.1796,9.96281-4.1796,.96504,0,2.2508,0,3.21615-.32072l12.2136,54.64304-40.50191-16.0712Z"/><path class="f" d="M114.644,177.44851v-11.57088c0-2.24952-1.93039-4.17832-4.18151-4.17832-2.24761,0-4.178,1.9288-4.178,4.17832v11.57088l4.178-1.60648,4.18151,1.60648Z"/><path class="j" d="M190.822,59.80484c2.2508,0,4.178,1.9288,4.178,4.1796,0,2.24952-1.92721,4.17832-4.178,4.17832-2.25112,0-4.17832-1.9288-4.17832-4.17832,.32072-2.57152,1.92721-4.1796,4.17832-4.1796Z"/><path class="j" d="M186.9644,111.87763c2.25116,0,4.17832,1.9288,4.17832,4.178,0,2.24952-1.92716,4.17832-4.17832,4.17832-2.2508,0-4.178-1.9288-4.178-4.17832,0-2.2492,1.92721-4.178,4.178-4.178Z"/><path class="h" d="M174.7508,144.02003c4.49877,0,8.0356,3.53528,8.0356,8.0356s-3.53683,8.0356-8.0356,8.0356c-4.50191,0-8.0356-3.53528-8.0356-8.0356s3.53369-8.0356,8.0356-8.0356Z"/><path class="j" d="M174.7508,184.19804c2.24761,0,4.178,1.9288,4.178,4.17992,0,2.24952-1.93039,4.178-4.178,4.178-2.25112,0-4.17832-1.92848-4.17832-4.178,.32072-2.25112,1.92721-4.17992,4.17832-4.17992Z"/><path class="g" d="M135.21392,137.91323c-3.8576,0-7.39129,1.60648-9.96281,4.178-8.35951,8.35792-21.53847,8.35792-29.89479,0-2.57152-2.57152-6.1084-4.178-9.96281-4.178-11.57216,0-21.21424-9.32136-21.21424-21.21456,0-3.8576-1.60967-7.39288-4.17832-9.9644-8.35951-8.35632-8.35951-21.53528,0-29.8932,2.56865-2.57152,4.17832-6.1068,4.17832-9.9644,0-11.57088,9.32136-21.21456,21.21424-21.21456,3.85441,0,7.39129-1.60648,9.96281-4.178,8.35632-8.35792,21.53528-8.35792,29.89479,0,2.57152,2.57152,6.10521,4.178,9.96281,4.178,11.57248,0,21.21456,9.32168,21.21456,21.21456,0,3.8576,1.60648,7.39288,4.178,9.9644,8.35632,8.35792,8.35632,21.53688,0,29.8932-2.57152,2.57152-4.178,6.1068-4.178,9.9644,0,5.46408-1.92721,10.92784-6.1084,14.78544-4.17832,4.1796-9.64208,6.42912-15.10616,6.42912Z"/><path class="j" d="M154.822,31.51971c2.24797,0,4.178,1.9288,4.178,4.17832,0,2.2508-1.93003,4.1796-4.178,4.1796-2.25112,0-4.17832-1.9288-4.17832-4.1796,0-2.24952,1.92721-4.17832,4.17832-4.17832Z"/><path class="e" d="M110.46249,59.80484c17.68087,0,32.14559,14.46472,32.14559,32.144,0,17.67768-14.46472,32.1424-32.14559,32.1424-17.67768,0-32.1424-14.46472-32.1424-32.1424,0-17.67928,14.46472-32.144,32.1424-32.144Z"/><polygon class="g" points="127.49904 86.48475 116.89161 93.87763 121.06997 106.41355 110.46249 98.69867 99.85856 106.41355 104.03656 93.87763 93.42944 86.48475 106.60808 86.48475 110.46249 73.94883 114.644 86.48475 127.49904 86.48475"/><path class="j" d="M74.46249,23.48411c2.25112,0,4.18151,1.9288,4.18151,4.17832,0,2.2508-1.93039,4.178-4.18151,4.178-2.24761,0-4.178-1.92721-4.178-4.178,0-2.24952,1.93039-4.17832,4.178-4.17832Z"/><path class="h" d="M52.28608,31.51971c3.21296,0,6.10521,2.57184,6.10521,6.1068,0,3.53528-2.57152,6.10712-6.10521,6.10712-3.21611,0-6.1084-2.57184-6.1084-6.10712,0-3.53496,2.57152-6.1068,6.1084-6.1068Z"/><path class="j" d="M50.35569,180.34235c2.25112,0,4.17832,1.9288,4.17832,4.178,0,2.24952-1.92721,4.17832-4.17832,4.17832-2.24793,0-4.178-1.9288-4.178-4.17832,0-2.57152,1.93007-4.178,4.178-4.178Z"/><path class="h" d="M38.14209,139.84203c6.74665,0,12.2136,5.46854,12.2136,12.2136,0,6.74665-5.46695,12.21392-12.2136,12.21392s-12.21392-5.46727-12.21392-12.21392c0-6.74506,5.46699-12.2136,12.21392-12.2136Z"/><path class="j" d="M38.14209,108.02003c2.2508,0,4.178,1.9288,4.178,4.17832,0,2.2508-1.92721,4.1796-4.178,4.1796-2.25112,0-4.17832-1.9288-4.17832-4.1796,0-2.24952,1.92721-4.17832,4.17832-4.17832Z"/><path class="j" d="M34.28449,59.80484c2.25112,0,4.178,1.9288,4.178,4.1796,0,2.24952-1.92689,4.17832-4.178,4.17832s-4.178-1.9288-4.178-4.17832c0-2.57152,1.92689-4.1796,4.178-4.1796Z"/></g></g></g></svg>