<?xml version="1.0" encoding="UTF-8"?><svg xmlns="http://www.w3.org/2000/svg" viewBox="0 0 220 220"><defs><style>.e{fill:#f88f19;}.f{fill:#313a52;}.g{fill:#f06000;}.h{fill:#4a78ff;}.i{fill:#3f4751;}.j{fill:#bce4ff;}.k{fill:#94d4ff;}</style></defs><g id="a"/><g id="b"/><g id="c"><g id="d"><g><path class="f" d="M124.69092,53.17623v5.00979c-3.53541-.88363-7.36781-1.17915-11.19844-1.17915s-7.36751,.29552-10.90439,.8851v-5.00979c0-6.19011,5.00979-11.19961,11.19844-11.19961,6.19011,0,10.90439,5.30502,10.90439,11.49367Z"/><path class="e" d="M165.36059,189.03603H62.21365V107.99164c0-28.29119,22.98763-51.57405,51.57288-51.57405,28.58671,0,51.57405,22.98734,51.57405,51.57405v81.0444Z"/><polygon class="i" points="150.62556 137.46169 150.62556 148.36607 132.05843 148.36607 76.94868 148.36607 76.94868 137.46169 150.62556 137.46169"/><polygon class="j" points="132.05843 148.36607 150.62556 148.36607 150.62556 174.30101 76.94868 174.30101 76.94868 148.36607 132.05843 148.36607"/><rect class="j" x="76.94868" y="122.72666" width="73.67688" height="14.73503"/><path class="j" d="M139.42595,104.161v3.83064h-51.57288v-3.83064c0-14.14574,11.49367-25.93493,25.93347-25.93493,14.44097,0,25.63941,11.78919,25.63941,25.93493Z"/><path class="g" d="M191,155.73359v25.93493h-25.93347v-51.57434c7.07229,0,13.55617,2.9473,18.2719,7.66303,4.71427,4.42022,7.66157,10.90439,7.66157,17.97638Z"/><path class="g" d="M62.21365,130.09417v51.57434h-25.93464v-25.93493c0-7.07199,2.9473-13.55617,7.66303-18.2719,4.71544-4.42022,10.90409-7.36751,18.27161-7.36751Z"/><path class="k" d="M186.28427,112.70737c.58958,.58958,1.17915,1.47292,1.17915,2.65178s-.29406,2.06249-1.17915,2.65207c-.58928,.58928-1.47292,1.17886-2.65178,1.17886-2.06366,0-3.83064-1.76844-3.83064-3.83093,0-.88334,.29377-2.0622,1.17886-2.65178,.58811-.58958,1.47292-1.17886,2.65178-1.17886s2.06249,.58928,2.65178,1.17886Z"/><path class="k" d="M182.45363,79.70044c.58928,.58811,1.17886,1.47292,1.17886,2.65178,0,1.17915-.29406,2.06249-1.17886,2.65207-.58958,.58928-1.47292,1.17886-2.65178,1.17886-2.06396,0-3.83239-1.76844-3.83239-3.83093,0-.8848,.29552-2.06366,1.17886-2.65178,.58958-.58958,1.47438-1.17886,2.65353-1.17886,1.17886,0,2.0622,.29406,2.65178,1.17886Z"/><path class="k" d="M138.24826,31.66297c.58958,.58958,1.17769,1.47292,1.17769,2.65207,0,1.17886-.29406,2.06366-1.17769,2.65178-.58928,.59075-1.47438,1.17886-2.65324,1.17886-2.0622,0-3.83064-1.76698-3.83064-3.83064,0-.88363,.29406-2.06249,1.17886-2.65207,.58958-.58928,1.47292-1.17886,2.65178-1.17886s2.06396,.58958,2.65324,1.17886Z"/><path class="k" d="M71.93918,42.86142c.58928,.58928,1.17886,1.47438,1.17886,2.65324,0,.88334-.29552,2.06249-1.17886,2.65178-.58958,.58958-1.47438,1.17886-2.65324,1.17886-2.06249,0-3.83093-1.76814-3.83093-3.83064,0-.8848,.29552-2.06396,1.17886-2.65324,.58958-.58958,1.47438-1.17886,2.65207-1.17886,1.17886,0,2.06366,.29523,2.65324,1.17886Z"/><path class="k" d="M46.29977,116.53801c.58958,.58958,1.17886,1.47321,1.17886,2.65207s-.29552,2.06366-1.17886,2.65324c-.58958,.58928-1.47438,1.17886-2.65324,1.17886-2.06249,0-3.83093-1.76844-3.83093-3.8321,0-.88363,.29552-2.06249,1.17915-2.65207,.58928-.58928,1.47292-1.17886,2.65178-1.17886s2.06366,.29552,2.65324,1.17886Z"/><path class="k" d="M35.10132,90.60337c.58811,.59075,1.17769,1.47438,1.17769,2.65324s-.29406,2.06249-1.17769,2.65178c-.59075,.58958-1.47438,1.17886-2.65324,1.17886-2.0622,0-3.83064-1.76814-3.83064-3.83064,0-.8848,.29406-2.06249,1.17886-2.65324,.58958-.58811,1.47292-1.17886,2.65178-1.17886s2.06249,.59075,2.65324,1.17886Z"/><path class="g" d="M154.16244,107.99164c-2.06396,0-3.83239,1.76844-3.83239,3.83093,0,2.06366,1.76844,3.8321,3.83239,3.8321h11.19815v-7.36897h-11.19815v-.29406Z"/><path class="g" d="M76.94868,111.52851c0-2.06396-1.76814-3.83093-3.83064-3.83093h-11.19961v7.36751h11.19961c2.06249,.29406,3.83064-1.47438,3.83064-3.53658Z"/><path class="i" d="M132.05843,163.1011c-2.06249,0-3.83093-1.76698-3.83093-3.83064v-11.19844c0-2.06366,1.76844-3.8321,3.83093-3.8321,2.06366,0,3.8321,1.76844,3.8321,3.8321v11.19844c0,2.35772-1.76844,3.83064-3.8321,3.83064Z"/><path class="h" d="M40.11111,63.7851c-2.06366,0-3.8321,1.76844-3.8321,3.8321,0,2.06249,1.76844,3.83093,3.8321,3.83093,2.06249,0,3.83093-1.76844,3.83093-3.83093,0-2.06366-2.06249-3.8321-3.83093-3.8321Z"/><path class="h" d="M170.6659,45.21914c-2.9473,0-5.59937,2.35801-5.59937,5.59908,0,3.24282,2.35655,5.59937,5.59937,5.59937,3.24135,0,5.59908-2.35655,5.59908-5.59937,0-3.24106-2.35772-5.59908-5.59908-5.59908Z"/></g></g></g></svg>