<?xml version="1.0" encoding="UTF-8"?><svg xmlns="http://www.w3.org/2000/svg" viewBox="0 0 220 220"><defs><style>.e{fill:#545b66;}.f{fill:#ffd400;}.g{fill:#3256c1;}.h{fill:#3f4751;}.i{fill:#94d4ff;}.j{fill:#757d8c;}</style></defs><g id="a"/><g id="b"/><g id="c"><g id="d"><g><path class="h" d="M179.648,155.89465c-2.26098,0-4.20069-1.93972-4.20069-4.20069v-52.33367c0-2.26098,1.93972-4.20101,4.20069-4.20101s4.1991,1.94003,4.1991,4.20101v52.65781c0,1.93684-1.93812,3.87656-4.1991,3.87656Z"/><path class="g" d="M189.66177,38.6281c5.49215,0,10.01569,4.52196,10.01569,10.01377,0,5.49213-4.52354,10.01409-10.01569,10.01409-5.49181,0-10.01377-4.52196-10.01377-10.01409,0-5.49181,4.52196-10.01377,10.01377-10.01377Z"/><path class="g" d="M34.27635,131.66609c4.52196,0,8.07565,3.5521,8.07565,8.07406,0,4.52515-3.5537,8.07725-8.07565,8.07725-4.52355,0-8.07725-3.5521-8.07725-8.07725,0-4.52196,3.5537-8.07406,8.07725-8.07406Z"/><path class="e" d="M58.5049,117.77576l44.25802,27.4562c2.58384,1.61558,5.81467,1.61558,8.39851,0l44.25802-27.4562v45.22628c0,4.84322-3.87656,9.04391-9.04551,9.04391H67.55041c-4.84609,0-9.04551-3.87624-9.04551-9.04391v-45.22628Z"/><path class="i" d="M195.8009,70.93071c2.26098,0,4.1991,1.94003,4.1991,4.20101s-1.93812,4.20069-4.1991,4.20069c-2.26258,0-4.20069-1.93972-4.20069-4.20069,.32254-2.26098,1.93812-4.20101,4.20069-4.20101Z"/><path class="i" d="M171.57075,180.1232c2.26258,0,4.20069,1.93684,4.20069,4.19782s-1.93812,4.20069-4.20069,4.20069c-2.26098,0-4.19942-1.93972-4.19942-4.20069,.32286-2.58224,1.93844-4.19782,4.19942-4.19782Z"/><path class="i" d="M139.26654,30.55085c2.26098,0,4.1991,1.93972,4.1991,4.20069s-1.93812,4.19782-4.1991,4.19782-4.19942-1.93684-4.19942-4.19782c.32286-2.26098,1.93844-4.20069,4.19942-4.20069Z"/><path class="i" d="M74.65781,183.99976c2.26098,0,4.19942,1.93652,4.19942,4.1975s-1.93844,4.20101-4.19942,4.20101c-2.26258,0-4.2007-1.94003-4.2007-4.20101,.32286-2.26098,1.93812-4.1975,4.2007-4.1975Z"/><path class="i" d="M66.58055,30.55085c2.26098,0,4.19942,1.93972,4.19942,4.20069s-1.93844,4.19782-4.19942,4.19782-4.1991-1.93684-4.1991-4.19782c.32286-2.26098,1.93812-4.20069,4.1991-4.20069Z"/><path class="i" d="M30.39979,172.04595c2.26098,0,4.19942,1.93972,4.19942,4.20069,0,2.2613-1.93844,4.19782-4.19942,4.19782s-4.20069-1.93652-4.20069-4.19782c0-2.58512,1.93972-4.20069,4.20069-4.20069Z"/><path class="i" d="M26.1991,54.7794c2.26258,0,4.20069,1.93972,4.20069,4.20069,0,2.2613-1.93812,4.19782-4.20069,4.19782-2.26098,0-4.1991-1.93652-4.1991-4.19782,.32254-2.26098,1.93812-4.20069,4.1991-4.20069Z"/><path class="j" d="M180.61626,88.70079c5.16927,3.23084,5.16927,10.65949,0,13.89033-.32286,.32446-69.13197,42.9653-69.45483,42.9653-2.58384,1.61558-5.81467,1.61558-8.39851,0,0,0-68.80943-42.64084-69.45642-42.9653-5.16768-3.23084-5.16768-10.65949,0-13.89033L102.76291,45.73549c2.58384-1.61558,5.81467-1.61558,8.39851,0l69.45483,42.9653Z"/><path class="e" d="M98.88636,63.50238c2.26098,0,4.19942,1.93652,4.19942,4.20069,0,2.26098-1.93844,4.1975-4.19942,4.1975-2.26258,0-4.20069-1.93652-4.20069-4.1975,.32286-2.58544,1.93812-4.20069,4.20069-4.20069Z"/><path class="e" d="M54.62835,99.68442c-1.2924,0-2.58512-.6454-3.55338-1.93972-1.29272-1.93652-.64732-4.52196,1.2924-5.49181l32.30452-20.35232c1.93812-1.29112,4.52196-.6454,5.49181,1.29112,1.29112,1.94003,.6454,4.52515-1.29272,5.49501l-32.3042,20.35232c-.64733,.6454-1.29273,.6454-1.93844,.6454Z"/><path class="f" d="M179.648,151.69395c4.52196,0,8.07565,3.55529,8.07565,8.07725s-3.5537,8.07406-8.07565,8.07406c-4.52354,0-8.07725-3.5521-8.07725-8.07406s3.55371-8.07725,8.07725-8.07725Z"/></g></g></g></svg>